<?xml version="1.0" encoding="utf-8"?>
<!-- Generator: Adobe Illustrator 26.1.0, SVG Export Plug-In . SVG Version: 6.00 Build 0)  -->
<svg version="1.1" id="Ebene_1" xmlns="http://www.w3.org/2000/svg" xmlns:xlink="http://www.w3.org/1999/xlink" x="0px" y="0px"
	 viewBox="0 0 296 236.79" style="enable-background:new 0 0 296 236.79;" xml:space="preserve">
<g>
	<path d="M0,120.4C0,44.49,43.49,0,82.95,0c23.08,0,48.49,15.05,65.22,43.48C164.9,15.39,190.32,0,213.39,0
		C252.52,0,296,44.49,296,120.4c0,73.24-43.48,116.4-82.61,116.4c-23.41,0-48.49-15.05-65.55-42.47
		c-16.72,26.74-41.8,42.47-64.88,42.47C43.49,236.79,0,193.64,0,120.4z M82.95,216.72c20.07,0,42.14-16.05,53.17-48.49
		c-4.68-14.05-7.35-30.11-7.35-47.84c0-18.4,2.67-35.12,7.35-49.84c-11.03-33.77-32.78-50.5-53.17-50.5
		c-24.41,0-50.84,23.42-58.54,71.91c6.03-17.72,17.06-26.42,27.44-26.42c14.71,0,31.77,18.06,31.77,54.52
		c0,34.78-17.06,52.17-31.77,52.17c-10.38,0-21.75-8.69-27.44-26.09C31.44,193.64,58.2,216.72,82.95,216.72z M213.39,216.72
		c28.43,0,60.21-31.44,60.21-96.32c0-67.55-31.78-100.34-60.21-100.34c-24.41,0-50.83,23.42-58.52,71.91
		c6.02-17.72,17.06-26.42,27.42-26.42c14.72,0,31.77,18.06,31.77,54.52c0,34.78-17.05,52.17-31.77,52.17
		c-10.36,0-21.75-8.69-27.42-26.09C161.89,193.64,188.65,216.72,213.39,216.72z"/>
</g>
</svg>
