<?xml version="1.0" encoding="utf-8"?>
<!-- Generator: Adobe Illustrator 26.1.0, SVG Export Plug-In . SVG Version: 6.00 Build 0)  -->
<svg version="1.1" id="Ebene_1" xmlns="http://www.w3.org/2000/svg" xmlns:xlink="http://www.w3.org/1999/xlink" x="0px" y="0px"
	 viewBox="0 0 821.87 243.31" style="enable-background:new 0 0 821.87 243.31;" xml:space="preserve">
<path d="M6.09,61.63v120.6l103.58,59.29l103.94-59.29V61.63L109.67,1.79L6.09,61.63z M141.69,81.94h19.22v79.42h-19.58v-38.25
	l-21.41,37.7v0.37h-19.58v-38.06l-21.59,38.06H58.97v-38.06V81.94h19.58v43.37l22.33-43.37h19.22v42.46L141.69,81.94z"/>
<path d="M378.86,83.41c-11.16,0-18.85,4.39-23.06,8.78c-5.12-5.86-12.63-8.97-20.5-8.78c-5.86,0-11.71,2.01-16.47,5.49v-4.39h-21.78
	v72.1h21.78v-47.58c2.93-3.48,7.32-5.67,11.9-5.67c8.6,0,11.35,7.5,11.35,16.84v36.42h21.78v-40.26c0-2.2-0.18-4.58-0.37-6.77
	c2.93-3.84,7.5-6.22,12.44-6.22c8.6,0,11.35,7.5,11.35,16.84v36.42h21.78v-40.26C409.24,98.41,400.27,83.41,378.86,83.41z"/>
<path d="M471.46,88.9c-4.58-3.66-10.07-5.49-15.92-5.49c-21.41,0-34.95,17.39-34.95,37.15s13.73,37.15,34.95,37.15
	c5.67,0,11.35-1.83,15.92-5.49v4.39h21.78v-72.1h-21.78L471.46,88.9L471.46,88.9z M471.46,131.9c-2.74,4.03-7.32,6.22-12.26,6.04
	c-10.43,0-16.65-7.87-16.65-17.39s6.22-17.39,16.65-17.39c4.76-0.18,9.52,2.2,12.26,6.04V131.9z"/>
<path d="M556.19,88.9c-4.58-3.66-10.07-5.49-15.92-5.49c-21.41,0-34.95,17.39-34.95,37.15s13.54,37.15,34.95,37.15
	c5.67,0,11.35-1.83,15.92-5.49v4.39h21.78V54.31h-21.78V88.9z M556.19,131.9c-2.74,4.03-7.5,6.22-12.26,6.04
	c-10.43,0-16.65-7.87-16.65-17.39s6.22-17.39,16.65-17.39c4.76-0.18,9.52,2.2,12.26,6.04V131.9z"/>
<path d="M627.92,83.41c-22.14,0-37.15,16.1-37.15,37.15c-0.18,20.31,15.92,36.97,36.23,37.15c0.18,0,0.37,0,0.55,0
	c13.18,0.18,25.44-6.22,32.57-17.39l-17.39-11.71c-2.93,5.86-8.97,9.33-15.37,9.15c-6.41,0-14.64-3.84-15.74-13.36h50.69
	c0.37-2.2,0.37-4.21,0.37-6.41C662.69,95.3,646.22,83.41,627.92,83.41z M612,111.77c2.01-8.6,9.52-10.98,14.64-10.98
	c6.77,0,12.99,3.11,14.46,10.07l0.18,0.92H612z"/>
<rect x="707.16" y="84.51" width="21.96" height="72.1"/>
<path d="M784.39,83.41c-6.04,0-11.9,1.83-16.65,5.49v-4.39h-21.78v72.1h21.78v-47.21c3.29-3.66,8.05-6.04,12.99-6.22
	c9.52,0,13.18,7.32,13.18,17.02v36.42h21.78v-40.26C815.87,96.95,804.7,83.41,784.39,83.41z"/>
<path d="M718.14,51.2c-7.14,0-12.99,5.86-12.99,12.99s5.86,12.99,12.99,12.99s12.99-5.86,12.99-12.99S725.28,51.2,718.14,51.2
	L718.14,51.2z"/>
</svg>
