<?xml version="1.0" encoding="utf-8"?>
<!-- Generator: Adobe Illustrator 26.1.0, SVG Export Plug-In . SVG Version: 6.00 Build 0)  -->
<svg version="1.1" id="Ebene_1" xmlns="http://www.w3.org/2000/svg" xmlns:xlink="http://www.w3.org/1999/xlink" x="0px" y="0px"
	 viewBox="0 0 198 295.9" style="enable-background:new 0 0 198 295.9;" xml:space="preserve">
<g>
	<path d="M26.9,98.76c8.13-1.1,15.14-0.36,20.29,1.85c4.43-6.64,11.45-11.07,19.56-12.18c-4.06-13.64-8.11-29.14-10.69-42.06
		c-11.07-57.55,51.28-60.86,61.98-13.64l8.13,32.46c2.21-11.07,4.79-21.77,6.64-30.63c10.33-45.74,72.69-42.42,62.35,17.71
		c-7.38,44.28-14.77,80.06-10.33,98.15c1.49,6.28,2.96,11.81,4.81,15.5c13.28,18.45,8.85,41.32,0,63.45
		c-9.6,25.46-21.4,69.01-90.77,66.42c-48.7-1.49-84.12-27.68-91.49-73.8c-4.07-27.31-4.43-55.71-3.32-74.89
		c-1.49-4.06-2.58-8.11-3.7-12.54C-1.5,120.9,3.66,101.72,26.9,98.76z M42.04,172.18c7.38-1.85,7.38-8.49,5.53-22.88l-0.74-4.42
		c0-2.58-0.38-5.54-0.74-7.75l-0.38-2.22c0-1.1,0-2.21-0.36-2.94l-0.38-5.54c-1.85-7.74-5.17-9.22-15.5-7.74
		c-8.85,1.1-10.32,4.79-9.22,12.17C26.9,157.06,32.07,174.03,42.04,172.18z M27.28,219.05c5.54,36.52,30.99,55.34,72.31,56.81
		c53.5,1.85,61.26-27.29,71.95-53.86c9.6-25.46,11.81-42.43-11.07-54.98c-25.08-14.01-49.07-10.69-66.05-9.58
		c-11.43,0.74-17.33,0-21.03-0.38c-0.36,6.64,1.85,18.09,13.65,19.93c6.64,1.1,16.24,2.21,23.25,2.57
		c17.71,0.75,30.25,2.22,34.31,12.92c3.7,9.6-0.38,21.77-12.54,36.53l-13.28-9.6c9.58-11.43,12.17-16.97,10.32-21.03
		c-0.36-1.85-6.26-2.21-19.92-2.94c-6.64-0.38-14.77-0.75-22.14-1.85c-7-1.11-21.03-5.54-24.72-16.24
		c-2.94,3.7-10.69,8.86-16.6,10.33c-9.22,1.85-16.24-0.74-22.14-7.01C24.33,192.85,25.43,206.13,27.28,219.05z M62.32,135.65
		c0.38,2.96,0.38,6.28,0.75,9.24v1.47c2.94-4.43,7.38-5.9,14.75-5.17c2.96,0.38,6.28,0.74,10.69,0.38c0-3.33-0.36-5.92-0.74-7.75
		c-2.58-22.14-5.9-25.46-15.86-25.84c-8.49-0.36-12.54,4.06-10.69,19.56L62.32,135.65z M90,97.66c7,5.9,11.81,16.22,14.01,33.57
		c0.38,2.21,0.74,5.17,0.74,8.85c16.6-1.1,38-0.36,60.14,11.07c-3.7-23.24,3.32-60.88,10.33-102.56
		c6.26-34.68-17.35-34.68-23.25-9.6c-4.79,22.14-11.43,54.98-16.24,78.96l-15.86,0.74c-7.38-27.68-16.6-62.73-21.03-81.55
		c-6.26-26.2-29.52-26.93-22.88,5.54C78.93,59.28,85.2,81.05,90,97.66z"/>
</g>
</svg>
