<?xml version="1.0" encoding="utf-8"?>
<!-- Generator: Adobe Illustrator 26.1.0, SVG Export Plug-In . SVG Version: 6.00 Build 0)  -->
<svg version="1.1" id="Ebene_1" xmlns="http://www.w3.org/2000/svg" xmlns:xlink="http://www.w3.org/1999/xlink" x="0px" y="0px"
	 viewBox="0 0 294 294" style="enable-background:new 0 0 294 294;" xml:space="preserve">
<style type="text/css">
	.st0{fill:#2600FF;}
</style>
<g>
	<path class="st0" d="M102.08,54.17c0.74,2.6,3.72,14.85,4.46,20.79c2.22-2.98,7.8-4.46,13.73-4.83c7.42-0.36,14.47,1.12,17.81,4.46
		c5.56-11.13,14.83-13.73,25.23-13.73c7.05,0,15.21,1.86,18.55,7.05l7.42-36.36c9.65-46.38,73.48-42.68,62.71,18.19
		c-7.42,44.52-14.83,80.14-10.76,98.33c2.22,7.78,4.46,13.72,7.42,18.91c10.39,17.81,6.31,39.72-1.86,59.75
		c-10.02,26.71-21.51,69.76-90.9,67.17c-49.35-1.5-85.72-27.83-92.77-73.84c-3.34-25.61-3.72-49.35-3.34-63.45
		c0-9.65-1.12-17.81-3.72-26.35c-4.44-17.07-11.87-45.28-15.58-62.35C29.36,9.65,90.59,6.68,102.08,54.17z M75.37,125.05
		c3.34,10.02,4.44,21.15,4.44,31.54c-0.36,14.09,0,36.36,3.34,60.47c5.57,36.74,31.54,55.29,73.48,56.77
		c53.06,1.86,60.85-27.09,71.61-54.54c10.03-24.49,11.87-41.94-11.5-54.55c-24.49-14.09-49.35-11.87-66.05-9.65
		c-8.17,1.12-14.11,0.74-17.81,0.38c-0.38,6.68,1.86,17.81,13.73,19.67c6.3,1.1,12.98,1.48,19.65,2.22
		c18.55,0.74,31.18,2.22,35.26,13.35c3.34,9.65-0.74,21.53-7.8,30.8l-13.35-9.65c4.82-5.94,7.04-11.5,5.56-15.21
		c-0.36-2.22-6.68-2.22-20.41-3.34c-6.68-0.36-14.47-0.74-21.89-1.86c-21.89-3.7-27.09-24.85-26.71-37.1
		c-9.65-8.54-15.97-24.87-20.05-39.32c-4.46-15.59-10.39-37.86-14.09-56.41c-6.31-26.35-28.94-27.09-22.27,5.57
		C63.5,80.52,70.92,107.98,75.37,125.05z M123.97,139.53c2.6-0.74,6.31-0.74,9.65-0.38c2.6,0.38,5.2,0.38,8.9,0.38
		c-3.34-8.54-4.08-18.93-4.82-27.83l-0.38-4.09c-1.48-14.83-2.96-19.65-17.06-18.17c-9.65,1.1-11.13,4.82-9.65,14.09
		C114.7,119.12,118.78,132.85,123.97,139.53z M159.23,137.67c4.44-0.38,9.64-0.74,14.83-0.38c1.86-7.8,2.98-19.67,2.98-36.72
		c0-18.57-3.34-21.53-13.73-21.9c-9.28,0-11.87,4.46-10.39,21.9C154.03,113.92,154.03,130.25,159.23,137.67z M190.4,138.79
		c10.02,1.48,20.41,4.44,30.8,10.02c-3.34-23.39,3.7-60.85,10.76-102.79c6.68-35.26-18.19-35.26-23.39-10.02l-15.21,74.2
		C193,121.71,191.88,131.35,190.4,138.79z"/>
</g>
</svg>
