<?xml version="1.0" encoding="utf-8"?>
<!-- Generator: Adobe Illustrator 26.1.0, SVG Export Plug-In . SVG Version: 6.00 Build 0)  -->
<svg version="1.1" id="Ebene_1" xmlns="http://www.w3.org/2000/svg" xmlns:xlink="http://www.w3.org/1999/xlink" x="0px" y="0px"
	 viewBox="0 0 296 275.15" style="enable-background:new 0 0 296 275.15;" xml:space="preserve">
<g>
	<path d="M2.46,140.2C2.46,53.08,60.68,1.52,148.19,1.52c87.13,0,145.35,51.57,145.35,138.68c0,83.62-58.22,134.01-145.35,134.01
		C60.68,274.21,2.46,223.82,2.46,140.2z M148.19,250.78c73.85,0,117.21-37.12,117.21-110.58c0-76.57-43.36-115.24-117.21-115.24
		C73.96,24.96,30.6,63.63,30.6,140.2C30.6,213.66,73.96,250.78,148.19,250.78z M148.19,211.7c73.06,0,90.65-56.26,90.65-83.2h-24.22
		c-1.96,14.84-8.21,55.86-66.42,55.86c-58.6,0-64.85-41.02-66.81-55.86H57.16C57.16,155.44,74.74,211.7,148.19,211.7z M113.04,71.06
		c14.06,0,23.05,8.99,23.05,23.83c0,15.64-8.99,24.22-23.05,24.22c-14.08,0-23.06-8.59-23.06-24.22
		C89.97,80.04,98.96,71.06,113.04,71.06z M183.36,71.06c14.06,0,23.05,8.99,23.05,23.83c0,15.64-8.99,24.22-23.05,24.22
		c-14.06,0-23.05-8.59-23.05-24.22C160.31,80.04,169.3,71.06,183.36,71.06z"/>
</g>
</svg>
