<?xml version="1.0" encoding="utf-8"?>
<!-- Generator: Adobe Illustrator 26.1.0, SVG Export Plug-In . SVG Version: 6.00 Build 0)  -->
<svg version="1.1" id="Ebene_1" xmlns="http://www.w3.org/2000/svg" xmlns:xlink="http://www.w3.org/1999/xlink" x="0px" y="0px"
	 viewBox="0 0 296 296" style="enable-background:new 0 0 296 296;" xml:space="preserve">
<g>
	<path d="M94.28,285.15l1.37-40.51l-33.64,22.32l11.67-38.45l-38.45,13.73l20.6-35.01L15.66,211l28.83-28.5l-40.17-6.18l35.03-20.94
		L1.92,139.24l38.8-10.99L8.8,103.88l40.51-1.37L24.59,70.24l39.47,8.93L47.58,41.75l36.4,18.87l-6.53-40.16L108,47.58l3.44-40.51
		l23.01,33.64l13.73-38.45l13.39,38.45l23.01-33.64L188,47.58l30.55-27.12l-6.18,40.16l36.05-18.87l-16.13,37.42l39.49-8.93
		l-24.73,32.27l40.17,1.37l-31.92,24.38l38.79,10.99L257,155.39l35.03,20.94l-40.52,6.18l29.18,28.5l-40.51-3.77l20.94,35.01
		l-38.1-13.73l10.99,38.45l-32.96-22.32l1.37,40.51l-27.46-30.55l-8.25,39.14l-18.53-35.7l-18.2,35.7l-8.92-39.14L94.28,285.15z
		 M148.17,238.8c61.79,0,93.38-29.52,93.38-87.89c0-61.44-31.59-92.35-93.38-92.35c-62.14,0-93.73,30.9-93.73,92.35
		C54.44,209.28,86.03,238.8,148.17,238.8z M108,147.14c4.12,12.36,18.55,23.34,40.17,23.34c21.64,0,36.05-10.99,40.17-23.34
		l20.25,9.62c-7.21,19.57-28.15,37.77-60.42,37.77s-53.21-18.2-60.42-37.77L108,147.14z M118.99,101.14
		c12.36,0,19.57,9.95,21.64,20.94l-4.81,3.77c-3.77-3.77-8.93-5.83-16.83-5.83c-7.55,0-12.71,1.72-16.13,5.14l-5.16-5.14
		C100.11,110.07,107.32,101.14,118.99,101.14z M177.36,101.14c12.36,0,19.57,9.95,21.62,20.94l-4.81,3.77
		c-3.77-3.77-8.92-5.83-16.81-5.83c-7.55,0-12.71,1.72-16.14,5.14l-5.14-5.14C158.48,110.07,165.69,101.14,177.36,101.14z"/>
</g>
</svg>
